HIERARCHY
ROOT root
{
	OFFSET 0.000000 0.000000 0.000000
	CHANNELS 6 Xposition Yposition Zposition Zrotation Yrotation Xrotation
	JOINT lhip
	{
		OFFSET 0.058581 -0.082280 -0.017664
		CHANNELS 3 Zrotation Yrotation Xrotation
		JOINT lknee
		{
			OFFSET 0.043451 -0.386469 0.008037
			CHANNELS 3 Zrotation Yrotation Xrotation
			JOINT lankle
			{
				OFFSET -0.014790 -0.426874 -0.037428
				CHANNELS 3 Zrotation Yrotation Xrotation
				JOINT ltoe
				{
					OFFSET 0.041054 -0.060286 0.122042
					CHANNELS 3 Zrotation Yrotation Xrotation
					End Site
					{
						OFFSET 0.000000 0.000000 0.000000
					}
				}
			}
		}
	}
	JOINT rhip
	{
		OFFSET -0.060310 -0.090513 -0.013543
		CHANNELS 3 Zrotation Yrotation Xrotation
		JOINT rknee
		{
			OFFSET -0.043257 -0.383688 -0.004843
			CHANNELS 3 Zrotation Yrotation Xrotation
			JOINT rankle
			{
				OFFSET 0.019056 -0.420046 -0.034562
				CHANNELS 3 Zrotation Yrotation Xrotation
				JOINT rtoe
				{
					OFFSET -0.034840 -0.062106 0.130323
					CHANNELS 3 Zrotation Yrotation Xrotation
					End Site
					{
						OFFSET 0.000000 0.000000 0.000000
					}
				}
			}
		}
	}
	JOINT lowerback
	{
		OFFSET 0.004439 0.124404 -0.038385
		CHANNELS 3 Zrotation Yrotation Xrotation
		JOINT upperback
		{
			OFFSET 0.004488 0.137956 0.026820
			CHANNELS 3 Zrotation Yrotation Xrotation
			JOINT chest
			{
				OFFSET -0.002265 0.056032 0.002855
				CHANNELS 3 Zrotation Yrotation Xrotation
				JOINT lowerneck
				{
					OFFSET -0.013390 0.211636 -0.033468
					CHANNELS 3 Zrotation Yrotation Xrotation
					JOINT upperneck
					{
						OFFSET 0.010113 0.088937 0.050410
						CHANNELS 3 Zrotation Yrotation Xrotation
						End Site
						{
							OFFSET 0.000000 0.000000 0.000000
						}
					}
				}
				JOINT lclavicle
				{
					OFFSET 0.071702 0.114000 -0.018898
					CHANNELS 3 Zrotation Yrotation Xrotation
					JOINT lshoulder
					{
						OFFSET 0.122921 0.045205 -0.019046
						CHANNELS 3 Zrotation Yrotation Xrotation
						JOINT lelbow
						{
							OFFSET 0.255332 -0.015649 -0.022946
							CHANNELS 3 Zrotation Yrotation Xrotation
							JOINT lwrist
							{
								OFFSET 0.265709 0.012698 -0.007375
								CHANNELS 3 Zrotation Yrotation Xrotation
								End Site
								{
									OFFSET 0.000000 0.000000 0.000000
								}
							}
						}
					}
				}
				JOINT rclavicle
				{
					OFFSET -0.082954 0.112472 -0.023707
					CHANNELS 3 Zrotation Yrotation Xrotation
					JOINT rshoulder
					{
						OFFSET -0.113228 0.046853 -0.008472
						CHANNELS 3 Zrotation Yrotation Xrotation
						JOINT relbow
						{
							OFFSET -0.260127 -0.014369 -0.031269
							CHANNELS 3 Zrotation Yrotation Xrotation
							JOINT rwrist
							{
								OFFSET -0.269108 0.006794 -0.006027
								CHANNELS 3 Zrotation Yrotation Xrotation
								End Site
								{
									OFFSET 0.000000 0.000000 0.000000
								}
							}
						}
					}
				}
			}
		}
	}
}
MOTION
Frames: 7
Frame Time: 0.033333
0.016801 0.256716 0.976575 84.360474 -0.828070 73.370561 5.396947 4.969479 0.179669 -10.148077 0.896398 35.266063 3.321446 17.987340 -23.960058 0.000000 -0.000000 0.000000 -9.575176 -6.101543 -9.041773 5.461998 -2.844308 40.208516 -1.643111 -7.127024 -15.499484 0.000000 -0.000000 0.000000 -0.858644 1.563594 16.420962 1.101134 -7.768251 32.541850 1.509016 0.984275 2.906865 -7.013688 3.685969 29.976237 6.465518 0.617636 -27.812821 4.781220 -33.568383 -6.085577 -26.100163 -43.213032 -12.338897 13.028841 -23.884168 -7.833417 -24.772623 2.062130 16.402678 -0.564571 38.535251 -2.263799 22.762368 42.343622 -13.366225 -13.194111 24.007726 -4.062970 21.947912 -1.199209 10.381050 
0.016947 0.256068 0.976647 84.299286 -0.811865 73.554651 5.303353 4.858728 0.092946 -10.164429 0.953769 35.163713 3.295391 18.070666 -24.124407 0.000000 -0.000000 0.000000 -9.512648 -6.070010 -9.136257 5.452303 -2.834216 40.012568 -1.666923 -7.117050 -15.481169 0.000000 -0.000000 0.000000 -0.929893 1.600753 16.435099 1.311291 -7.784922 32.514657 1.527569 1.155208 2.489710 -7.010530 3.387538 29.211634 6.257363 0.759979 -26.522909 2.983124 -32.393822 -6.315576 -26.114522 -44.337793 -11.422360 12.926103 -23.965538 -7.702193 -24.344399 2.489348 16.874809 1.178913 37.424097 -2.197569 21.969013 42.823000 -12.809694 -12.561393 24.445240 -3.578426 21.759869 -1.650116 11.477694 
0.017422 0.255509 0.976396 84.332030 -0.811764 73.767759 5.225615 4.832044 -0.053065 -10.120520 1.045991 35.118281 3.236027 17.957607 -24.227712 0.000000 -0.000000 0.000000 -9.484884 -6.116465 -9.282379 5.426201 -2.800351 39.918304 -1.605945 -7.112628 -15.551983 0.000000 -0.000000 0.000000 -0.928507 1.500653 16.856350 1.426236 -7.763647 31.260248 1.444435 1.300158 2.512397 -7.290798 2.979939 28.931159 6.513310 1.441695 -25.435338 0.564446 -31.496349 -6.043297 -25.514018 -44.869275 -10.672526 12.423621 -24.639935 -7.176824 -23.992234 2.542554 17.484082 3.666499 36.466686 -1.672984 21.000496 42.955626 -12.597389 -11.853115 25.199719 -3.069719 21.987090 -2.051824 12.964060 
0.017846 0.255501 0.975977 84.303734 -0.845776 73.822340 5.159178 4.829469 -0.057474 -10.194369 1.059462 35.129378 3.264724 18.001491 -24.408058 0.000000 -0.000000 0.000000 -9.491162 -6.137796 -9.373870 5.377930 -2.729468 39.980025 -1.672374 -7.089163 -15.536906 0.000000 -0.000000 0.000000 -0.985026 1.472196 16.982998 1.500905 -7.781705 31.148391 1.405450 1.366891 2.180843 -7.378051 2.719818 28.198790 6.450956 1.826064 -24.612716 -1.419653 -30.734590 -6.125458 -25.079395 -44.791853 -9.848973 12.114092 -25.790605 -7.078073 -23.729162 2.644891 17.855752 5.752276 35.707608 -1.633418 20.011469 42.968843 -12.202149 -10.974674 25.890430 -2.983709 21.997746 -2.342630 13.937811 
0.018355 0.255902 0.975200 84.311085 -0.884494 73.722387 5.057584 4.882324 0.022079 -10.136312 1.091286 35.289765 3.387890 17.956199 -24.651667 0.000000 -0.000000 0.000000 -9.611547 -6.236439 -9.331489 5.417660 -2.616895 40.218450 -1.620210 -7.112839 -15.832532 0.000000 -0.000000 0.000000 -0.993245 1.496105 17.416986 1.580989 -7.803133 30.721646 1.425355 1.388289 1.922103 -7.193214 2.498067 27.403299 6.265249 1.921138 -23.532379 -3.057531 -30.012995 -6.093222 -25.156616 -44.702660 -8.729824 12.346811 -27.006984 -7.563943 -23.795536 2.645683 17.746233 7.327439 34.961126 -1.572965 19.828624 42.913035 -11.170412 -10.968253 26.525362 -3.132994 22.149165 -2.621867 13.974824 
0.018537 0.255764 0.974335 84.334726 -0.935866 73.611055 4.962569 4.856566 0.041060 -10.178305 1.097754 35.558630 3.393543 18.013652 -24.897809 0.000000 -0.000000 0.000000 -9.666667 -6.341330 -9.348939 5.374154 -2.526630 40.505414 -1.643005 -7.211125 -16.048471 0.000000 -0.000000 0.000000 -1.086432 1.537060 17.793711 1.601083 -7.814845 30.561532 1.396618 1.438336 1.794994 -7.127176 2.128694 26.172024 6.235648 2.058551 -22.697782 -4.465242 -29.231154 -6.257985 -24.746437 -44.645269 -8.202466 12.225665 -28.450794 -7.898736 -23.340198 2.632771 18.037730 9.196765 34.455945 -1.609141 18.664174 42.910245 -10.987353 -10.323737 26.862418 -3.507234 22.050042 -2.945619 14.943703 
0.018825 0.255454 0.972938 84.157145 -0.887084 73.537001 5.171961 4.962792 -0.039030 -10.350505 1.251782 36.051311 3.322680 18.061161 -25.296996 0.000000 -0.000000 0.000000 -9.562593 -6.257469 -9.474029 5.377013 -2.471564 40.900552 -1.658174 -7.165238 -16.345051 0.000000 -0.000000 0.000000 -1.179938 1.551303 18.104938 1.689616 -7.766559 30.441437 1.389061 1.592263 1.200670 -7.152285 1.635997 25.806356 6.330233 1.991799 -22.003156 -6.692846 -28.872029 -5.705512 -23.680978 -44.138222 -8.172848 12.188383 -29.957667 -8.395012 -23.246483 2.919500 18.754272 11.694058 34.389150 -0.592561 17.112448 42.534711 -11.577770 -10.040600 27.527102 -3.393144 22.239574 -3.569394 16.653111 
